<svg width="300" height="300" viewBox="0 0 300 300" fill="none" xmlns="http://www.w3.org/2000/svg">
<g clip-path="url(#clip0_353_167)">
<path d="M109.612 228.214V201.71M149.487 228.214V175.207M189.362 228.214V148.704M215.945 281.221H83.0288C75.9784 281.221 69.217 278.428 64.2316 273.458C59.2462 268.488 56.4453 261.746 56.4453 254.717V69.1935C56.4453 62.1644 59.2462 55.4228 64.2316 50.4528C69.217 45.4824 75.9784 42.6899 83.0288 42.6899H157.276C160.801 42.6908 164.181 44.0875 166.673 46.5727L238.634 118.317C241.127 120.802 242.528 124.172 242.529 127.686V254.717C242.529 261.746 239.728 268.488 234.743 273.458C229.758 278.428 222.996 281.221 215.945 281.221Z" stroke="white" stroke-width="25" stroke-linecap="round" stroke-linejoin="round"/>
<path d="M178.389 65.2501C178.389 38.0015 200.539 15.9178 227.87 15.9178C255.196 15.9178 277.351 38.0015 277.351 65.2456C277.351 92.4941 255.201 114.578 227.87 114.578C200.544 114.578 178.389 92.4941 178.389 65.2456V65.2501Z" stroke="#EF4041" stroke-width="25" stroke-miterlimit="20"/>
<path d="M194.501 101.596L138.268 157.661" stroke="#EF4041" stroke-width="25" stroke-miterlimit="20"/>
</g>
<defs>
<clipPath id="clip0_353_167">
<rect width="300" height="300" fill="white"/>
</clipPath>
</defs>
</svg>
