<svg width="349" height="300" viewBox="0 0 349 300" fill="none" xmlns="http://www.w3.org/2000/svg">
<path d="M277.941 150C277.941 140.639 281.66 131.662 288.279 125.043C294.898 118.424 303.875 114.706 313.235 114.706C322.596 114.706 331.573 118.424 338.192 125.043C344.811 131.662 348.529 140.639 348.529 150C348.529 159.361 344.811 168.338 338.192 174.957C331.573 181.576 322.596 185.294 313.235 185.294C303.875 185.294 294.898 181.576 288.279 174.957C281.66 168.338 277.941 159.361 277.941 150Z" fill="#EF4041"/>
<path d="M180.883 300V0H260.294V300H180.883Z" fill="white"/>
<path d="M79.4121 110.294C79.4121 105.08 80.4391 99.9167 82.4345 95.0993C84.4299 90.282 87.3547 85.9048 91.0417 82.2178C94.7287 78.5308 99.1059 75.6061 103.923 73.6107C108.741 71.6152 113.904 70.5882 119.118 70.5882C124.332 70.5882 129.495 71.6152 134.313 73.6107C139.13 75.6061 143.507 78.5308 147.194 82.2178C150.881 85.9048 153.806 90.282 155.801 95.0993C157.797 99.9167 158.824 105.08 158.824 110.294C158.824 120.825 154.641 130.924 147.194 138.37C139.748 145.817 129.649 150 119.118 150C108.587 150 98.488 145.817 91.0417 138.37C83.5954 130.924 79.4121 120.825 79.4121 110.294Z" fill="#345078"/>
<path d="M79.4121 189.706C79.4121 184.492 80.4391 179.328 82.4345 174.511C84.4299 169.694 87.3547 165.317 91.0417 161.63C94.7287 157.943 99.1059 155.018 103.923 153.022C108.741 151.027 113.904 150 119.118 150C124.332 150 129.495 151.027 134.313 153.022C139.13 155.018 143.507 157.943 147.194 161.63C150.881 165.317 153.806 169.694 155.801 174.511C157.797 179.328 158.824 184.492 158.824 189.706C158.824 200.237 154.641 210.336 147.194 217.782C139.748 225.228 129.649 229.412 119.118 229.412C108.587 229.412 98.488 225.228 91.0417 217.782C83.5954 210.336 79.4121 200.237 79.4121 189.706Z" fill="#59789E"/>
<path d="M0 110.294C0 99.7635 4.18329 89.6641 11.6296 82.2178C19.0759 74.7715 29.1752 70.5882 39.7059 70.5882C50.2365 70.5882 60.3359 74.7715 67.7822 82.2178C75.2285 89.6641 79.4118 99.7635 79.4118 110.294C79.4118 120.825 75.2285 130.924 67.7822 138.37C60.3359 145.817 50.2365 150 39.7059 150C29.1752 150 19.0759 145.817 11.6296 138.37C4.18329 130.924 0 120.825 0 110.294Z" fill="#59789E"/>
<path d="M0 189.706C0 179.175 4.18329 169.076 11.6296 161.63C19.0759 154.183 29.1752 150 39.7059 150C50.2365 150 60.3359 154.183 67.7822 161.63C75.2285 169.076 79.4118 179.175 79.4118 189.706C79.4118 200.237 75.2285 210.336 67.7822 217.782C60.3359 225.228 50.2365 229.412 39.7059 229.412C29.1752 229.412 19.0759 225.228 11.6296 217.782C4.18329 210.336 0 200.237 0 189.706Z" fill="#345078"/>
</svg>
