<svg width="273" height="300" viewBox="0 0 273 300" fill="none" xmlns="http://www.w3.org/2000/svg">
<g clip-path="url(#clip0_335_172)">
<path d="M28.146 104.411C28.146 47.3829 74.342 1.16418 131.337 1.16418C188.333 1.16418 234.534 47.3876 234.534 104.411C234.534 161.43 188.333 207.653 131.337 207.653C74.3467 207.653 28.146 161.43 28.146 104.411V104.411Z" fill="white"/>
<path d="M131.338 1.16418C74.3423 1.16418 28.1416 47.3876 28.1416 104.406C28.1416 161.43 74.3423 207.653 131.338 207.653C188.328 207.653 234.529 161.43 234.529 104.406H131.338V1.16418Z" fill="#EF4041"/>
<path d="M196.513 294.597V223.956H229.099V294.597H196.513Z" fill="#EF4041"/>
<path d="M142.203 294.597V256.558H174.788V294.597H142.203Z" fill="#EF4041"/>
<path d="M250.824 294.597V191.35H283.419V294.602L250.824 294.597Z" fill="white"/>
<path d="M60.8386 191.623C60.8386 163.109 83.9366 140 112.437 140C140.932 140 164.035 163.109 164.035 191.619C164.035 220.133 140.937 243.242 112.437 243.242C83.9413 243.242 60.8386 220.133 60.8386 191.619V191.623Z" stroke="#345078" stroke-width="25" stroke-miterlimit="20"/>
<path d="M77.6399 229.658L19 288.327" stroke="#345078" stroke-width="25" stroke-miterlimit="20"/>
</g>
<defs>
<clipPath id="clip0_335_172">
<rect width="273" height="300" fill="white"/>
</clipPath>
</defs>
</svg>
