<svg width="317" height="301" viewBox="0 0 317 301" fill="none" xmlns="http://www.w3.org/2000/svg">
<path d="M0 246.07H316.901V281C316.901 292.046 307.947 301 296.901 301H20C8.95431 301 0 292.046 0 281V246.07Z" fill="#50688B"/>
<path d="M103.521 246.07H213.38V258.253C213.38 263.776 208.903 268.253 203.38 268.253H113.521C107.998 268.253 103.521 263.776 103.521 258.253V246.07Z" fill="#345078"/>
<rect x="58.0986" y="269.31" width="26.4085" height="8.4507" rx="4.22535" fill="#345078"/>
<circle cx="41.1973" cy="273.535" r="4.22535" fill="#BEEF38"/>
<circle cx="24.2957" cy="273.535" r="4.22535" fill="#BEEF38"/>
<path d="M29.5774 136.343V186.074L213.38 186.704V160.894V136.343H29.5774Z" fill="#50688B" stroke="#50688B"/>
<ellipse cx="121.479" cy="186.704" rx="91.9014" ry="30.8457" fill="#50688B" stroke="#50688B"/>
<path d="M29.5774 84.0945V133.825L213.38 134.455V108.645V84.0945H29.5774Z" fill="#345078" stroke="#345078"/>
<ellipse cx="121.479" cy="134.455" rx="91.9014" ry="30.8457" fill="#345078" stroke="#345078"/>
<path d="M29.5774 31.2161V80.9469L213.38 81.5764V55.7667V31.2161H29.5774Z" fill="#50688B" stroke="#50688B"/>
<ellipse cx="121.479" cy="81.5764" rx="91.9014" ry="30.8457" fill="#50688B" stroke="#50688B"/>
<ellipse cx="121.479" cy="31.8457" rx="91.9014" ry="30.8457" fill="#6F8AAB" stroke="#6F8AAB"/>
<circle cx="213.38" cy="136.211" r="81.338" fill="#EF4041"/>
<path d="M223.029 145.86C225.728 143.161 227.245 139.5 227.245 135.683C227.245 131.866 225.728 128.205 223.029 125.506C220.33 122.807 216.669 121.291 212.852 121.291C209.035 121.291 205.374 122.807 202.675 125.506C199.976 128.205 198.459 131.866 198.459 135.683C198.459 139.5 199.976 143.161 202.675 145.86C205.374 148.559 209.035 150.076 212.852 150.076C216.669 150.076 220.33 148.559 223.029 145.86Z" stroke="white" stroke-width="8" stroke-linecap="round" stroke-linejoin="round"/>
<path d="M167.074 135.683C173.186 116.22 191.373 102.101 212.852 102.101C234.335 102.101 252.518 116.22 258.63 135.683C252.518 155.147 234.335 169.266 212.852 169.266C191.373 169.266 173.186 155.147 167.074 135.683Z" stroke="white" stroke-width="8" stroke-linecap="round" stroke-linejoin="round"/>
</svg>
