<svg width="358" height="300" viewBox="0 0 358 300" fill="none" xmlns="http://www.w3.org/2000/svg">
<g clip-path="url(#clip0_335_68)">
<path d="M128.875 301.164L0.0100098 172.224L45.109 127.098L173.974 256.039L128.875 301.164Z" fill="white"/>
<path d="M360.763 172.201L231.898 301.142L186.799 256.017L315.664 127.076L360.763 172.201Z" fill="white"/>
<path d="M140.213 122.995C140.213 112.225 144.489 101.895 152.101 94.2793C159.712 86.6634 170.036 82.3848 180.8 82.3848C191.564 82.3848 201.887 86.6634 209.499 94.2793C217.11 101.895 221.386 112.225 221.386 122.995C221.386 133.766 217.11 144.095 209.499 151.711C201.887 159.327 191.564 163.605 180.8 163.605C170.036 163.605 159.712 159.327 152.101 151.711C144.489 144.095 140.213 133.766 140.213 122.995Z" fill="#345078"/>
<path d="M140.213 41.7745C140.213 31.004 144.489 20.6746 152.101 13.0587C159.712 5.44275 170.036 1.16418 180.8 1.16418C191.564 1.16418 201.887 5.44275 209.499 13.0587C217.11 20.6746 221.386 31.004 221.386 41.7745C221.386 52.545 217.11 62.8744 209.499 70.4903C201.887 78.1062 191.564 82.3848 180.8 82.3848C170.036 82.3848 159.712 78.1062 152.101 70.4903C144.489 62.8744 140.213 52.545 140.213 41.7745Z" fill="#EF4041"/>
<path d="M140.213 204.216C140.213 193.445 144.489 183.116 152.101 175.5C159.712 167.884 170.036 163.605 180.8 163.605C191.564 163.605 201.887 167.884 209.499 175.5C217.11 183.116 221.386 193.445 221.386 204.216C221.386 214.986 217.11 225.316 209.499 232.932C201.887 240.548 191.564 244.826 180.8 244.826C170.036 244.826 159.712 240.548 152.101 232.932C144.489 225.316 140.213 214.986 140.213 204.216Z" fill="#59789E"/>
</g>
<defs>
<clipPath id="clip0_335_68">
<rect width="358" height="300" fill="white"/>
</clipPath>
</defs>
</svg>
