<svg width="300" height="300" viewBox="0 0 300 300" fill="none" xmlns="http://www.w3.org/2000/svg">
<g clip-path="url(#clip0_353_166)">
<path d="M17.1667 19.1666V101.875H26.794M26.794 101.875C37.7752 74.7157 57.457 51.9672 82.7549 37.1947C108.053 22.4222 137.537 16.4606 166.587 20.2441C195.637 24.0277 222.611 37.3425 243.281 58.102C263.951 78.8615 277.15 105.892 280.808 134.958M26.794 101.875H99.8751M281.833 283.833V201.125H272.223M272.223 201.125C261.226 228.268 241.538 250.999 216.243 265.758C190.948 280.517 161.472 286.472 132.431 282.69C103.39 278.908 76.4223 265.602 55.7507 244.857C35.0792 224.111 21.8705 197.096 18.1923 168.042M272.223 201.125H199.125" stroke="white" stroke-width="25" stroke-linecap="round" stroke-linejoin="round"/>
<path d="M81.5 189.887V90.1244L149.16 80V229.643L81.5 189.887Z" fill="#59789E" stroke="#59789E"/>
<path d="M216.574 190.133V90.3713L149.185 80.2469V229.89L216.574 190.133Z" fill="#345078" stroke="#345078"/>
<path d="M115.577 157.785L123.232 148.154L135.332 156.797L178.546 116.793L185.954 126.177L136.567 172.354L115.577 157.785Z" fill="white"/>
<g clip-path="url(#clip1_353_166)">
<path d="M17.1667 19.1666V101.875H26.794M26.794 101.875C37.7752 74.7157 57.457 51.9672 82.7549 37.1947C108.053 22.4222 137.537 16.4606 166.587 20.2441C195.637 24.0277 222.611 37.3425 243.281 58.102C263.951 78.8615 277.15 105.892 280.808 134.958M26.794 101.875H99.8751M281.833 283.833V201.125H272.223M272.223 201.125C261.226 228.268 241.538 250.999 216.243 265.758C190.948 280.517 161.472 286.472 132.431 282.69C103.39 278.908 76.4223 265.602 55.7507 244.857C35.0792 224.111 21.8705 197.096 18.1923 168.042M272.223 201.125H199.125" stroke="#EF4041" stroke-width="25" stroke-linecap="round" stroke-linejoin="round"/>
</g>
</g>
<defs>
<clipPath id="clip0_353_166">
<rect width="300" height="300" fill="white"/>
</clipPath>
<clipPath id="clip1_353_166">
<rect width="340" height="148" fill="white" transform="translate(-13.5 152)"/>
</clipPath>
</defs>
</svg>
