<svg width="319" height="300" viewBox="0 0 319 300" fill="none" xmlns="http://www.w3.org/2000/svg">
<g clip-path="url(#clip0_335_190)">
<path d="M77.0582 159.29C77.0362 148.01 79.2912 136.842 83.6885 126.452C90.0996 111.365 100.752 98.4566 114.357 89.2864C128.302 79.8645 144.764 74.8492 161.603 74.8928C173.378 74.8928 184.408 77.2551 194.501 81.5119C209.612 87.9134 222.543 98.5472 231.729 112.128C241.164 126.05 246.188 142.482 246.147 159.29H319.16C319.178 138.632 315.111 118.175 307.194 99.0891C299.276 80.0037 287.663 62.6661 273.02 48.0702C258.397 33.4489 241.028 21.8532 221.906 13.9479C202.785 6.04269 182.289 1.98347 161.593 2.00306C140.901 1.98542 120.408 6.0456 101.29 13.9508C82.1722 21.856 64.8054 33.4507 50.1855 48.0702C35.5426 62.6661 23.9294 80.0037 16.0117 99.0891C8.09399 118.175 4.02745 138.632 4.04522 159.29H77.0582Z" fill="white"/>
<path d="M221.383 99.6103C229.103 107.308 235.261 116.422 239.517 126.452C243.913 136.842 246.166 148.011 246.143 159.29H319.156C319.174 138.632 315.108 118.174 307.19 99.0887C299.272 80.0032 287.659 62.6656 273.015 48.0702L221.383 99.6103Z" fill="#EF4041"/>
<path d="M108.649 172.173L209.013 113.326L150.066 213.52" fill="white"/>
<path d="M127.678 268.841C127.678 264.791 128.477 260.78 130.03 257.039C131.582 253.297 133.858 249.897 136.726 247.033C139.595 244.169 143.001 241.898 146.749 240.348C150.497 238.798 154.514 238 158.571 238C162.628 238 166.645 238.798 170.393 240.348C174.141 241.898 177.547 244.169 180.416 247.033C183.284 249.897 185.56 253.297 187.112 257.039C188.665 260.78 189.464 264.791 189.464 268.841C189.464 277.02 186.209 284.864 180.416 290.647C174.623 296.43 166.766 299.679 158.573 299.679C150.381 299.679 142.523 296.43 136.73 290.647C130.937 284.864 127.683 277.02 127.683 268.841H127.678Z" fill="#59789E"/>
<path d="M62.5183 268.841C62.5183 264.791 63.3173 260.781 64.8697 257.039C66.4221 253.298 68.6975 249.898 71.566 247.035C74.4344 244.171 77.8398 241.9 81.5876 240.35C85.3354 238.8 89.3523 238.002 93.4089 238.002C97.4656 238.002 101.482 238.8 105.23 240.35C108.978 241.9 112.383 244.171 115.252 247.035C118.12 249.898 120.396 253.298 121.948 257.039C123.501 260.781 124.3 264.791 124.3 268.841C124.3 277.02 121.045 284.864 115.252 290.647C109.459 296.43 101.602 299.679 93.4089 299.679C85.2162 299.679 77.3591 296.43 71.566 290.647C65.7729 284.864 62.5183 277.02 62.5183 268.841V268.841Z" fill="#345078"/>
<path d="M193.47 268.841C193.47 264.791 194.269 260.781 195.822 257.039C197.374 253.298 199.649 249.898 202.518 247.035C205.386 244.171 208.792 241.9 212.54 240.35C216.287 238.8 220.304 238.002 224.361 238.002C228.417 238.002 232.434 238.8 236.182 240.35C239.93 241.9 243.335 244.171 246.204 247.035C249.072 249.898 251.348 253.298 252.9 257.039C254.452 260.781 255.251 264.791 255.251 268.841C255.251 277.02 251.997 284.864 246.204 290.647C240.411 296.43 232.554 299.679 224.361 299.679C216.168 299.679 208.311 296.43 202.518 290.647C196.725 284.864 193.47 277.02 193.47 268.841V268.841Z" fill="#EF4041"/>
</g>
<defs>
<clipPath id="clip0_335_190">
<rect width="319" height="300" fill="white"/>
</clipPath>
</defs>
</svg>
