<svg width="450" height="300" viewBox="0 0 450 300" fill="none" xmlns="http://www.w3.org/2000/svg">
<g clip-path="url(#clip0_335_84)">
<path d="M0 75C0 33.5766 33.5167 0 74.8663 0C116.216 0 149.733 33.5766 149.733 75C149.733 116.423 116.216 150 74.8663 150C33.5167 150 0 116.423 0 75Z" fill="#EF4041"/>
<path d="M149.733 37.5C149.733 27.5544 153.677 18.0161 160.697 10.9835C167.717 3.95088 177.238 0 187.166 0C197.094 0 206.615 3.95088 213.635 10.9835C220.655 18.0161 224.599 27.5544 224.599 37.5C224.599 47.4456 220.655 56.9839 213.635 64.0165C206.615 71.0491 197.094 75 187.166 75C177.238 75 167.717 71.0491 160.697 64.0165C153.677 56.9839 149.733 47.4456 149.733 37.5Z" fill="#345078"/>
<path d="M149.733 112.5C149.733 102.554 153.677 93.0161 160.697 85.9835C167.717 78.9509 177.238 75 187.166 75C197.094 75 206.615 78.9509 213.635 85.9835C220.655 93.0161 224.599 102.554 224.599 112.5C224.599 122.446 220.655 131.984 213.635 139.017C206.615 146.049 197.094 150 187.166 150C177.238 150 167.717 146.049 160.697 139.017C153.677 131.984 149.733 122.446 149.733 112.5Z" fill="#59789E"/>
<path d="M149.733 187.5C149.733 177.554 153.677 168.016 160.697 160.984C167.717 153.951 177.238 150 187.166 150C197.094 150 206.615 153.951 213.635 160.984C220.655 168.016 224.599 177.554 224.599 187.5C224.599 197.446 220.655 206.984 213.635 214.016C206.615 221.049 197.094 225 187.166 225C177.238 225 167.717 221.049 160.697 214.016C153.677 206.984 149.733 197.446 149.733 187.5Z" fill="#345078"/>
<path d="M149.733 262.5C149.733 252.554 153.677 243.016 160.697 235.984C167.717 228.951 177.238 225 187.166 225C197.094 225 206.615 228.951 213.635 235.984C220.655 243.016 224.599 252.554 224.599 262.5C224.599 272.446 220.655 281.984 213.635 289.016C206.615 296.049 197.094 300 187.166 300C177.238 300 167.717 296.049 160.697 289.016C153.677 281.984 149.733 272.446 149.733 262.5Z" fill="#59789E"/>
<path d="M224.599 37.5C224.599 27.5544 228.543 18.0161 235.563 10.9835C242.583 3.95088 252.104 0 262.032 0C271.96 0 281.481 3.95088 288.501 10.9835C295.521 18.0161 299.465 27.5544 299.465 37.5C299.465 47.4456 295.521 56.9839 288.501 64.0165C281.481 71.0491 271.96 75 262.032 75C252.104 75 242.583 71.0491 235.563 64.0165C228.543 56.9839 224.599 47.4456 224.599 37.5Z" fill="#EF4041"/>
<path d="M224.599 112.5C224.599 102.554 228.543 93.0161 235.563 85.9835C242.583 78.9509 252.104 75 262.032 75C271.96 75 281.481 78.9509 288.501 85.9835C295.521 93.0161 299.465 102.554 299.465 112.5C299.465 122.446 295.521 131.984 288.501 139.017C281.481 146.049 271.96 150 262.032 150C252.104 150 242.583 146.049 235.563 139.017C228.543 131.984 224.599 122.446 224.599 112.5Z" fill="#345078"/>
<path d="M224.599 187.5C224.599 177.554 228.543 168.016 235.563 160.984C242.583 153.951 252.104 150 262.032 150C271.96 150 281.481 153.951 288.501 160.984C295.521 168.016 299.465 177.554 299.465 187.5C299.465 197.446 295.521 206.984 288.501 214.016C281.481 221.049 271.96 225 262.032 225C252.104 225 242.583 221.049 235.563 214.016C228.543 206.984 224.599 197.446 224.599 187.5Z" fill="#59789E"/>
<path d="M224.599 262.5C224.599 252.554 228.543 243.016 235.563 235.984C242.583 228.951 252.104 225 262.032 225C271.96 225 281.481 228.951 288.501 235.984C295.521 243.016 299.465 252.554 299.465 262.5C299.465 272.446 295.521 281.984 288.501 289.016C281.481 296.049 271.96 300 262.032 300C252.104 300 242.583 296.049 235.563 289.016C228.543 281.984 224.599 272.446 224.599 262.5Z" fill="#EF4041"/>
<path d="M299.465 18.75C299.465 13.7772 301.437 9.00805 304.947 5.49175C308.457 1.97544 313.218 0 318.182 0C323.146 0 327.907 1.97544 331.417 5.49175C334.927 9.00805 336.898 13.7772 336.898 18.75C336.898 23.7228 334.927 28.4919 331.417 32.0083C327.907 35.5246 323.146 37.5 318.182 37.5C313.218 37.5 308.457 35.5246 304.947 32.0083C301.437 28.4919 299.465 23.7228 299.465 18.75Z" fill="#59789E"/>
<path d="M299.465 56.25C299.465 51.2772 301.437 46.5081 304.947 42.9917C308.457 39.4754 313.218 37.5 318.182 37.5C323.146 37.5 327.907 39.4754 331.417 42.9917C334.927 46.5081 336.898 51.2772 336.898 56.25C336.898 61.2228 334.927 65.9919 331.417 69.5083C327.907 73.0246 323.146 75 318.182 75C313.218 75 308.457 73.0246 304.947 69.5083C301.437 65.9919 299.465 61.2228 299.465 56.25Z" fill="#345078"/>
<path d="M299.465 93.75C299.465 88.7772 301.437 84.0081 304.947 80.4918C308.457 76.9754 313.218 75 318.182 75C323.146 75 327.907 76.9754 331.417 80.4918C334.927 84.0081 336.898 88.7772 336.898 93.75C336.898 98.7228 334.927 103.492 331.417 107.008C327.907 110.525 323.146 112.5 318.182 112.5C313.218 112.5 308.457 110.525 304.947 107.008C301.437 103.492 299.465 98.7228 299.465 93.75Z" fill="#59789E"/>
<path d="M299.465 131.25C299.465 126.277 301.437 121.508 304.947 117.992C308.457 114.475 313.218 112.5 318.182 112.5C323.146 112.5 327.907 114.475 331.417 117.992C334.927 121.508 336.898 126.277 336.898 131.25C336.898 136.223 334.927 140.992 331.417 144.508C327.907 148.025 323.146 150 318.182 150C313.218 150 308.457 148.025 304.947 144.508C301.437 140.992 299.465 136.223 299.465 131.25Z" fill="#345078"/>
<path d="M336.898 18.75C336.898 13.7772 338.87 9.00805 342.38 5.49175C345.89 1.97544 350.651 0 355.615 0C360.579 0 365.34 1.97544 368.85 5.49175C372.36 9.00805 374.332 13.7772 374.332 18.75C374.332 23.7228 372.36 28.4919 368.85 32.0083C365.34 35.5246 360.579 37.5 355.615 37.5C350.651 37.5 345.89 35.5246 342.38 32.0083C338.87 28.4919 336.898 23.7228 336.898 18.75Z" fill="#345078"/>
<path d="M336.898 56.25C336.898 51.2772 338.87 46.5081 342.38 42.9917C345.89 39.4754 350.651 37.5 355.615 37.5C360.579 37.5 365.34 39.4754 368.85 42.9917C372.36 46.5081 374.332 51.2772 374.332 56.25C374.332 61.2228 372.36 65.9919 368.85 69.5083C365.34 73.0246 360.579 75 355.615 75C350.651 75 345.89 73.0246 342.38 69.5083C338.87 65.9919 336.898 61.2228 336.898 56.25Z" fill="#59789E"/>
<path d="M336.898 93.75C336.898 88.7772 338.87 84.0081 342.38 80.4918C345.89 76.9754 350.651 75 355.615 75C360.579 75 365.34 76.9754 368.85 80.4918C372.36 84.0081 374.332 88.7772 374.332 93.75C374.332 98.7228 372.36 103.492 368.85 107.008C365.34 110.525 360.579 112.5 355.615 112.5C350.651 112.5 345.89 110.525 342.38 107.008C338.87 103.492 336.898 98.7228 336.898 93.75Z" fill="#345078"/>
<path d="M336.898 131.25C336.898 126.277 338.87 121.508 342.38 117.992C345.89 114.475 350.651 112.5 355.615 112.5C360.579 112.5 365.34 114.475 368.85 117.992C372.36 121.508 374.332 126.277 374.332 131.25C374.332 136.223 372.36 140.992 368.85 144.508C365.34 148.025 360.579 150 355.615 150C350.651 150 345.89 148.025 342.38 144.508C338.87 140.992 336.898 136.223 336.898 131.25Z" fill="#59789E"/>
<path d="M299.465 168.75C299.465 163.777 301.437 159.008 304.947 155.492C308.457 151.975 313.218 150 318.182 150C323.146 150 327.907 151.975 331.417 155.492C334.927 159.008 336.898 163.777 336.898 168.75C336.898 173.723 334.927 178.492 331.417 182.008C327.907 185.525 323.146 187.5 318.182 187.5C313.218 187.5 308.457 185.525 304.947 182.008C301.437 178.492 299.465 173.723 299.465 168.75Z" fill="#59789E"/>
<path d="M299.465 206.25C299.465 201.277 301.437 196.508 304.947 192.992C308.457 189.475 313.218 187.5 318.182 187.5C323.146 187.5 327.907 189.475 331.417 192.992C334.927 196.508 336.898 201.277 336.898 206.25C336.898 211.223 334.927 215.992 331.417 219.508C327.907 223.025 323.146 225 318.182 225C313.218 225 308.457 223.025 304.947 219.508C301.437 215.992 299.465 211.223 299.465 206.25Z" fill="#345078"/>
<path d="M299.465 243.75C299.465 238.777 301.437 234.008 304.947 230.492C308.457 226.975 313.218 225 318.182 225C323.146 225 327.907 226.975 331.417 230.492C334.927 234.008 336.898 238.777 336.898 243.75C336.898 248.723 334.927 253.492 331.417 257.008C327.907 260.525 323.146 262.5 318.182 262.5C313.218 262.5 308.457 260.525 304.947 257.008C301.437 253.492 299.465 248.723 299.465 243.75Z" fill="#59789E"/>
<path d="M299.465 281.25C299.465 276.277 301.437 271.508 304.947 267.992C308.457 264.475 313.218 262.5 318.182 262.5C323.146 262.5 327.907 264.475 331.417 267.992C334.927 271.508 336.898 276.277 336.898 281.25C336.898 286.223 334.927 290.992 331.417 294.508C327.907 298.025 323.146 300 318.182 300C313.218 300 308.457 298.025 304.947 294.508C301.437 290.992 299.465 286.223 299.465 281.25Z" fill="#345078"/>
<path d="M336.898 168.75C336.898 163.777 338.87 159.008 342.38 155.492C345.89 151.975 350.651 150 355.615 150C360.579 150 365.34 151.975 368.85 155.492C372.36 159.008 374.332 163.777 374.332 168.75C374.332 173.723 372.36 178.492 368.85 182.008C365.34 185.525 360.579 187.5 355.615 187.5C350.651 187.5 345.89 185.525 342.38 182.008C338.87 178.492 336.898 173.723 336.898 168.75Z" fill="#345078"/>
<path d="M336.898 206.25C336.898 201.277 338.87 196.508 342.38 192.992C345.89 189.475 350.651 187.5 355.615 187.5C360.579 187.5 365.34 189.475 368.85 192.992C372.36 196.508 374.332 201.277 374.332 206.25C374.332 211.223 372.36 215.992 368.85 219.508C365.34 223.025 360.579 225 355.615 225C350.651 225 345.89 223.025 342.38 219.508C338.87 215.992 336.898 211.223 336.898 206.25Z" fill="#59789E"/>
<path d="M336.898 243.75C336.898 238.777 338.87 234.008 342.38 230.492C345.89 226.975 350.651 225 355.615 225C360.579 225 365.34 226.975 368.85 230.492C372.36 234.008 374.332 238.777 374.332 243.75C374.332 248.723 372.36 253.492 368.85 257.008C365.34 260.525 360.579 262.5 355.615 262.5C350.651 262.5 345.89 260.525 342.38 257.008C338.87 253.492 336.898 248.723 336.898 243.75Z" fill="#345078"/>
<path d="M336.898 281.25C336.898 276.277 338.87 271.508 342.38 267.992C345.89 264.475 350.651 262.5 355.615 262.5C360.579 262.5 365.34 264.475 368.85 267.992C372.36 271.508 374.332 276.277 374.332 281.25C374.332 286.223 372.36 290.992 368.85 294.508C365.34 298.025 360.579 300 355.615 300C350.651 300 345.89 298.025 342.38 294.508C338.87 290.992 336.898 286.223 336.898 281.25Z" fill="#59789E"/>
<path d="M374.332 18.75C374.332 13.7772 376.303 9.00805 379.813 5.49175C383.324 1.97544 388.084 0 393.048 0C398.012 0 402.773 1.97544 406.283 5.49175C409.793 9.00805 411.765 13.7772 411.765 18.75C411.765 23.7228 409.793 28.4919 406.283 32.0083C402.773 35.5246 398.012 37.5 393.048 37.5C388.084 37.5 383.324 35.5246 379.813 32.0083C376.303 28.4919 374.332 23.7228 374.332 18.75Z" fill="#59789E"/>
<path d="M374.332 56.25C374.332 51.2772 376.303 46.5081 379.813 42.9917C383.324 39.4754 388.084 37.5 393.048 37.5C398.012 37.5 402.773 39.4754 406.283 42.9917C409.793 46.5081 411.765 51.2772 411.765 56.25C411.765 61.2228 409.793 65.9919 406.283 69.5083C402.773 73.0246 398.012 75 393.048 75C388.084 75 383.324 73.0246 379.813 69.5083C376.303 65.9919 374.332 61.2228 374.332 56.25Z" fill="#345078"/>
<path d="M374.332 93.75C374.332 88.7772 376.303 84.0081 379.813 80.4918C383.324 76.9754 388.084 75 393.048 75C398.012 75 402.773 76.9754 406.283 80.4918C409.793 84.0081 411.765 88.7772 411.765 93.75C411.765 98.7228 409.793 103.492 406.283 107.008C402.773 110.525 398.012 112.5 393.048 112.5C388.084 112.5 383.324 110.525 379.813 107.008C376.303 103.492 374.332 98.7228 374.332 93.75Z" fill="#59789E"/>
<path d="M374.332 131.25C374.332 126.277 376.303 121.508 379.813 117.992C383.324 114.475 388.084 112.5 393.048 112.5C398.012 112.5 402.773 114.475 406.283 117.992C409.793 121.508 411.765 126.277 411.765 131.25C411.765 136.223 409.793 140.992 406.283 144.508C402.773 148.025 398.012 150 393.048 150C388.084 150 383.324 148.025 379.813 144.508C376.303 140.992 374.332 136.223 374.332 131.25Z" fill="#345078"/>
<path d="M411.765 18.75C411.765 13.7772 413.737 9.00805 417.247 5.49175C420.757 1.97544 425.517 0 430.481 0C435.445 0 440.206 1.97544 443.716 5.49175C447.226 9.00805 449.198 13.7772 449.198 18.75C449.198 23.7228 447.226 28.4919 443.716 32.0083C440.206 35.5246 435.445 37.5 430.481 37.5C425.517 37.5 420.757 35.5246 417.247 32.0083C413.737 28.4919 411.765 23.7228 411.765 18.75Z" fill="#EF4041"/>
<path d="M411.765 56.25C411.765 51.2772 413.737 46.5081 417.247 42.9917C420.757 39.4754 425.517 37.5 430.481 37.5C435.445 37.5 440.206 39.4754 443.716 42.9917C447.226 46.5081 449.198 51.2772 449.198 56.25C449.198 61.2228 447.226 65.9919 443.716 69.5083C440.206 73.0246 435.445 75 430.481 75C425.517 75 420.757 73.0246 417.247 69.5083C413.737 65.9919 411.765 61.2228 411.765 56.25Z" fill="#59789E"/>
<path d="M411.765 93.75C411.765 88.7772 413.737 84.0081 417.247 80.4918C420.757 76.9754 425.517 75 430.481 75C435.445 75 440.206 76.9754 443.716 80.4918C447.226 84.0081 449.198 88.7772 449.198 93.75C449.198 98.7228 447.226 103.492 443.716 107.008C440.206 110.525 435.445 112.5 430.481 112.5C425.517 112.5 420.757 110.525 417.247 107.008C413.737 103.492 411.765 98.7228 411.765 93.75Z" fill="#345078"/>
<path d="M411.765 131.25C411.765 126.277 413.737 121.508 417.247 117.992C420.757 114.475 425.517 112.5 430.481 112.5C435.445 112.5 440.206 114.475 443.716 117.992C447.226 121.508 449.198 126.277 449.198 131.25C449.198 136.223 447.226 140.992 443.716 144.508C440.206 148.025 435.445 150 430.481 150C425.517 150 420.757 148.025 417.247 144.508C413.737 140.992 411.765 136.223 411.765 131.25Z" fill="#59789E"/>
<path d="M374.332 168.75C374.332 163.777 376.303 159.008 379.813 155.492C383.324 151.975 388.084 150 393.048 150C398.012 150 402.773 151.975 406.283 155.492C409.793 159.008 411.765 163.777 411.765 168.75C411.765 173.723 409.793 178.492 406.283 182.008C402.773 185.525 398.012 187.5 393.048 187.5C388.084 187.5 383.324 185.525 379.813 182.008C376.303 178.492 374.332 173.723 374.332 168.75Z" fill="#59789E"/>
<path d="M374.332 206.25C374.332 201.277 376.303 196.508 379.813 192.992C383.324 189.475 388.084 187.5 393.048 187.5C398.012 187.5 402.773 189.475 406.283 192.992C409.793 196.508 411.765 201.277 411.765 206.25C411.765 211.223 409.793 215.992 406.283 219.508C402.773 223.025 398.012 225 393.048 225C388.084 225 383.324 223.025 379.813 219.508C376.303 215.992 374.332 211.223 374.332 206.25Z" fill="#345078"/>
<path d="M374.332 243.75C374.332 238.777 376.303 234.008 379.813 230.492C383.324 226.975 388.084 225 393.048 225C398.012 225 402.773 226.975 406.283 230.492C409.793 234.008 411.765 238.777 411.765 243.75C411.765 248.723 409.793 253.492 406.283 257.008C402.773 260.525 398.012 262.5 393.048 262.5C388.084 262.5 383.324 260.525 379.813 257.008C376.303 253.492 374.332 248.723 374.332 243.75Z" fill="#59789E"/>
<path d="M374.332 281.25C374.332 276.277 376.303 271.508 379.813 267.992C383.324 264.475 388.084 262.5 393.048 262.5C398.012 262.5 402.773 264.475 406.283 267.992C409.793 271.508 411.765 276.277 411.765 281.25C411.765 286.223 409.793 290.992 406.283 294.508C402.773 298.025 398.012 300 393.048 300C388.084 300 383.324 298.025 379.813 294.508C376.303 290.992 374.332 286.223 374.332 281.25Z" fill="#345078"/>
<path d="M411.765 168.75C411.765 163.777 413.737 159.008 417.247 155.492C420.757 151.975 425.517 150 430.481 150C435.445 150 440.206 151.975 443.716 155.492C447.226 159.008 449.198 163.777 449.198 168.75C449.198 173.723 447.226 178.492 443.716 182.008C440.206 185.525 435.445 187.5 430.481 187.5C425.517 187.5 420.757 185.525 417.247 182.008C413.737 178.492 411.765 173.723 411.765 168.75Z" fill="#345078"/>
<path d="M411.765 206.25C411.765 201.277 413.737 196.508 417.247 192.992C420.757 189.475 425.517 187.5 430.481 187.5C435.445 187.5 440.206 189.475 443.716 192.992C447.226 196.508 449.198 201.277 449.198 206.25C449.198 211.223 447.226 215.992 443.716 219.508C440.206 223.025 435.445 225 430.481 225C425.517 225 420.757 223.025 417.247 219.508C413.737 215.992 411.765 211.223 411.765 206.25Z" fill="#59789E"/>
<path d="M411.765 243.75C411.765 238.777 413.737 234.008 417.247 230.492C420.757 226.975 425.517 225 430.481 225C435.445 225 440.206 226.975 443.716 230.492C447.226 234.008 449.198 238.777 449.198 243.75C449.198 248.723 447.226 253.492 443.716 257.008C440.206 260.525 435.445 262.5 430.481 262.5C425.517 262.5 420.757 260.525 417.247 257.008C413.737 253.492 411.765 248.723 411.765 243.75Z" fill="#345078"/>
<path d="M411.765 281.25C411.765 276.277 413.737 271.508 417.247 267.992C420.757 264.475 425.517 262.5 430.481 262.5C435.445 262.5 440.206 264.475 443.716 267.992C447.226 271.508 449.198 276.277 449.198 281.25C449.198 286.223 447.226 290.992 443.716 294.508C440.206 298.025 435.445 300 430.481 300C425.517 300 420.757 298.025 417.247 294.508C413.737 290.992 411.765 286.223 411.765 281.25Z" fill="#EF4041"/>
<path d="M0 225C0 183.577 33.5167 150 74.8663 150C116.216 150 149.733 183.577 149.733 225C149.733 266.423 116.216 300 74.8663 300C33.5167 300 0 266.423 0 225Z" fill="#EF4041"/>
</g>
<defs>
<clipPath id="clip0_335_84">
<rect width="449.198" height="300" fill="white"/>
</clipPath>
</defs>
</svg>
