<svg width="469" height="300" viewBox="0 0 469 300" fill="none" xmlns="http://www.w3.org/2000/svg">
<path d="M141.078 47.3978L219.146 211.896" stroke="white" stroke-width="10"/>
<path d="M308.458 44.6097L222.983 205.384" stroke="white" stroke-width="10"/>
<path d="M185.496 224.397L11.3722 277.642" stroke="white" stroke-width="10"/>
<path d="M425.816 207.435L244.656 225.74" stroke="white" stroke-width="10"/>
<path d="M86.9888 52.974C86.9888 38.9244 92.56 25.4503 102.477 15.5157C112.394 5.58117 125.844 0 139.868 0C153.893 0 167.343 5.58117 177.26 15.5157C187.177 25.4503 192.748 38.9244 192.748 52.974C192.748 67.0236 187.177 80.4977 177.26 90.4322C167.343 100.367 153.893 105.948 139.868 105.948C125.844 105.948 112.394 100.367 102.477 90.4322C92.56 80.4977 86.9888 67.0236 86.9888 52.974Z" fill="#345078"/>
<path d="M285.502 37.3605C285.502 29.5224 288.61 22.0052 294.143 16.4628C299.675 10.9203 307.179 7.80664 315.003 7.80664C322.827 7.80664 330.331 10.9203 335.864 16.4628C341.396 22.0052 344.504 29.5224 344.504 37.3605C344.504 45.1987 341.396 52.7159 335.864 58.2583C330.331 63.8007 322.827 66.9144 315.003 66.9144C307.179 66.9144 299.675 63.8007 294.143 58.2583C288.61 52.7159 285.502 45.1987 285.502 37.3605Z" fill="#59789E"/>
<path d="M384.758 215.799C384.758 204.707 389.157 194.07 396.986 186.227C404.815 178.384 415.433 173.978 426.505 173.978C437.577 173.978 448.196 178.384 456.025 186.227C463.854 194.07 468.252 204.707 468.252 215.799C468.252 226.891 463.854 237.528 456.025 245.372C448.196 253.215 437.577 257.621 426.505 257.621C415.433 257.621 404.815 253.215 396.986 245.372C389.157 237.528 384.758 226.891 384.758 215.799Z" fill="#345078"/>
<path d="M0 274.907C0 268.252 2.63901 261.869 7.33646 257.164C12.0339 252.458 18.405 249.814 25.0482 249.814C31.6914 249.814 38.0625 252.458 42.76 257.164C47.4574 261.869 50.0964 268.252 50.0964 274.907C50.0964 281.562 47.4574 287.945 42.76 292.65C38.0625 297.356 31.6914 300 25.0482 300C18.405 300 12.0339 297.356 7.33646 292.65C2.63901 287.945 0 281.562 0 274.907Z" fill="#345078"/>
<path d="M139.405 216.357C139.405 170.16 176.785 132.714 222.899 132.714C269.014 132.714 306.393 170.16 306.393 216.357C306.393 262.554 269.014 300 222.899 300C176.785 300 139.405 262.554 139.405 216.357Z" fill="#EF4041"/>
</svg>
