<svg width="300" height="300" viewBox="0 0 300 300" fill="none" xmlns="http://www.w3.org/2000/svg">
<g clip-path="url(#clip0_355_116)">
<path d="M173.985 34.3953C167.631 8.20158 130.369 8.20158 124.015 34.3953C119.898 51.3257 100.506 59.3508 85.6489 50.2815C62.6176 36.2598 36.2747 62.6176 50.2964 85.634C52.4042 89.091 53.6659 92.9968 53.9789 97.0335C54.2919 101.07 53.6473 105.124 52.0975 108.864C50.5478 112.605 48.1368 115.927 45.0607 118.559C41.9845 121.192 38.3303 123.061 34.3953 124.015C8.20158 130.369 8.20158 167.631 34.3953 173.985C38.3267 174.941 41.9772 176.812 45.0498 179.444C48.1225 182.077 50.5306 185.397 52.0785 189.135C53.6265 192.873 54.2705 196.924 53.9582 200.958C53.646 204.992 52.3863 208.896 50.2815 212.351C36.2598 235.382 62.6176 261.725 85.634 247.704C89.091 245.596 92.9968 244.334 97.0335 244.021C101.07 243.708 105.124 244.353 108.864 245.902C112.605 247.452 115.927 249.863 118.559 252.939C121.192 256.015 123.061 259.67 124.015 263.605C130.369 289.798 167.631 289.798 173.985 263.605C174.941 259.673 176.812 256.023 179.444 252.95C182.077 249.878 185.397 247.469 189.135 245.921C192.873 244.374 196.924 243.73 200.958 244.042C204.992 244.354 208.896 245.614 212.351 247.719C235.382 261.74 261.725 235.382 247.704 212.366C245.596 208.909 244.334 205.003 244.021 200.966C243.708 196.93 244.353 192.876 245.902 189.136C247.452 185.395 249.863 182.073 252.939 179.441C256.015 176.808 259.67 174.939 263.605 173.985C289.798 167.631 289.798 130.369 263.605 124.015C259.673 123.059 256.023 121.188 252.95 118.556C249.878 115.923 247.469 112.603 245.921 108.865C244.374 105.127 243.73 101.076 244.042 97.0419C244.354 93.0079 245.614 89.1044 247.719 85.6489C261.74 62.6176 235.382 36.2747 212.366 50.2964C208.909 52.4042 205.003 53.6659 200.966 53.9789C196.93 54.2919 192.876 53.6473 189.136 52.0975C185.395 50.5478 182.073 48.1368 179.441 45.0607C176.808 41.9845 174.939 38.3303 173.985 34.3953Z" stroke="#345078" stroke-width="26" stroke-linecap="round" stroke-linejoin="round"/>
<path d="M180.643 180.643C189.035 172.251 193.75 160.868 193.75 149C193.75 137.132 189.035 125.749 180.643 117.357C172.251 108.965 160.868 104.25 149 104.25C137.132 104.25 125.749 108.965 117.357 117.357C108.965 125.749 104.25 137.132 104.25 149C104.25 160.868 108.965 172.251 117.357 180.643C125.749 189.035 137.132 193.75 149 193.75C160.868 193.75 172.251 189.035 180.643 180.643Z" stroke="#345078" stroke-width="18" stroke-linecap="round" stroke-linejoin="round"/>
<path d="M194 92.2852V22.1207L241.587 15V120.247L194 92.2852Z" fill="#EF4041" stroke="#EF4041"/>
<path d="M289 92.459V22.2945L241.604 15.1738V120.421L289 92.459Z" fill="#EF4041" stroke="#EF4041"/>
<path d="M217.967 69.7077L223.351 62.9344L231.861 69.013L262.254 40.8777L267.464 47.4773L232.729 79.9545L217.967 69.7077Z" fill="white"/>
</g>
<defs>
<clipPath id="clip0_355_116">
<rect width="300" height="300" fill="white"/>
</clipPath>
</defs>
</svg>
