<svg width="317" height="301" viewBox="0 0 317 301" fill="none" xmlns="http://www.w3.org/2000/svg">
<path d="M0 246.07H316.901V281C316.901 292.046 307.947 301 296.901 301H20C8.95431 301 0 292.046 0 281V246.07Z" fill="#50688B"/>
<path d="M103.521 246.07H213.38V258.254C213.38 263.776 208.903 268.254 203.38 268.254H113.521C107.998 268.254 103.521 263.776 103.521 258.254V246.07Z" fill="#345078"/>
<rect x="58.0986" y="269.31" width="26.4085" height="8.4507" rx="4.22535" fill="#345078"/>
<circle cx="41.1973" cy="273.535" r="4.22535" fill="#BEEF38"/>
<circle cx="24.2957" cy="273.535" r="4.22535" fill="#BEEF38"/>
<path d="M29.5774 136.343V186.074L213.38 186.704V160.894V136.343H29.5774Z" fill="#50688B" stroke="#50688B"/>
<ellipse cx="121.479" cy="186.704" rx="91.9014" ry="30.8457" fill="#50688B" stroke="#50688B"/>
<path d="M29.5774 84.0946V133.825L213.38 134.455V108.645V84.0946H29.5774Z" fill="#345078" stroke="#345078"/>
<ellipse cx="121.479" cy="134.455" rx="91.9014" ry="30.8457" fill="#345078" stroke="#345078"/>
<path d="M29.5774 31.2162V80.947L213.38 81.5765V55.7668V31.2162H29.5774Z" fill="#50688B" stroke="#50688B"/>
<ellipse cx="121.479" cy="81.5765" rx="91.9014" ry="30.8457" fill="#50688B" stroke="#50688B"/>
<ellipse cx="121.479" cy="31.8457" rx="91.9014" ry="30.8457" fill="#6F8AAB" stroke="#6F8AAB"/>
<circle cx="213.38" cy="136.211" r="81.338" fill="#EF4041"/>
<path d="M175.352 98.1831V121.951H178.119M178.119 121.951C181.274 114.146 186.93 107.609 194.2 103.364C201.47 99.1187 209.943 97.4055 218.291 98.4928C226.639 99.58 234.39 103.406 240.33 109.372C246.27 115.337 250.063 123.105 251.114 131.458M178.119 121.951H199.12M251.409 174.239V150.472H248.647M248.647 150.472C245.487 158.272 239.829 164.804 232.56 169.045C225.291 173.287 216.821 174.998 208.475 173.911C200.13 172.824 192.38 169 186.44 163.039C180.5 157.077 176.704 149.314 175.647 140.965M248.647 150.472H227.641" stroke="white" stroke-width="8" stroke-linecap="round" stroke-linejoin="round"/>
</svg>
